<?xml version="1.0" encoding="UTF-8" standalone="no"?>
<!-- Uploaded to: SVG Repo, www.svgrepo.com, Transformed by: SVG Repo Mixer Tools -->

<svg
   width="800px"
   height="800px"
   viewBox="0 0 24 24"
   fill="none"
   stroke="#ac9b7f"
   version="1.1"
   id="svg2"
   sodipodi:docname="close-icon.svg"
   inkscape:version="1.3.2 (9e3d6414e7, 2024-01-14, custom)"
   xmlns:inkscape="http://www.inkscape.org/namespaces/inkscape"
   xmlns:sodipodi="http://sodipodi.sourceforge.net/DTD/sodipodi-0.dtd"
   xmlns="http://www.w3.org/2000/svg"
   xmlns:svg="http://www.w3.org/2000/svg">
  <defs
     id="defs2" />
  <sodipodi:namedview
     id="namedview2"
     pagecolor="#ffffff"
     bordercolor="#000000"
     borderopacity="0.25"
     inkscape:showpageshadow="2"
     inkscape:pageopacity="0.0"
     inkscape:pagecheckerboard="0"
     inkscape:deskcolor="#d1d1d1"
     inkscape:zoom="1.01375"
     inkscape:cx="399.50678"
     inkscape:cy="400"
     inkscape:window-width="1920"
     inkscape:window-height="1011"
     inkscape:window-x="0"
     inkscape:window-y="0"
     inkscape:window-maximized="1"
     inkscape:current-layer="svg2" />
  <g
     id="SVGRepo_bgCarrier"
     stroke-width="0" />
  <g
     id="SVGRepo_tracerCarrier"
     stroke-linecap="round"
     stroke-linejoin="round" />
  <g
     id="SVGRepo_iconCarrier"
     transform="matrix(1.0248885,0,0,1.0248885,-0.298662,-0.298662)"
     style="stroke:#ac9b7f;stroke-opacity:1">
    <path
       d="M 14.5,9.50002 9.5,14.5 m -2e-5,-5 5.00002,5"
       stroke="#1c274c"
       stroke-width="1.5"
       stroke-linecap="round"
       id="path1"
       style="stroke:#ac9b7f;stroke-opacity:1" />
    <path
       d="m 22,12 c 0,4.714 0,7.0711 -1.4645,8.5355 C 19.0711,22 16.714,22 12,22 7.28595,22 4.92893,22 3.46447,20.5355 2,19.0711 2,16.714 2,12 2,7.28595 2,4.92893 3.46447,3.46447 4.92893,2 7.28595,2 12,2 16.714,2 19.0711,2 20.5355,3.46447 21.5093,4.43821 21.8356,5.80655 21.9449,8"
       stroke="#1c274c"
       stroke-width="1.5"
       stroke-linecap="round"
       id="path2"
       style="stroke:#ac9b7f;stroke-opacity:1" />
  </g>
</svg>
