<?xml version="1.0" encoding="utf-8"?>
<!-- Uploaded to: SVG Repo, www.svgrepo.com, Generator: SVG Repo Mixer Tools -->
<svg width="800px" height="800px" viewBox="0 0 1024 1024" fill="#000000" class="icon"  version="1.1" xmlns="http://www.w3.org/2000/svg"><path d="M512 663.98c-44.104 0-79.99-35.886-79.99-79.99S467.896 504 512 504s79.988 35.886 79.988 79.99S556.104 663.98 512 663.98z m0-143.982c-35.292 0-63.992 28.714-63.992 63.992s28.7 63.992 63.992 63.992 63.992-28.714 63.992-63.992-28.7-63.992-63.992-63.992z" fill="" /><path d="M512 615.986c-17.638 0-31.996-14.342-31.996-31.996s14.358-31.996 31.996-31.996c17.636 0 31.996 14.342 31.996 31.996s-14.36 31.996-31.996 31.996z m0-47.994c-8.828 0-15.998 7.188-15.998 15.998s7.17 15.998 15.998 15.998c8.826 0 15.998-7.188 15.998-15.998s-7.172-15.998-15.998-15.998z" fill="" /><path d="M535.996 767.966h-47.994c-13.232 0-23.996-10.764-23.996-23.998v-5.748c-0.032-3.624-10.124-13.842-15.404-16.374-3.796 0-8.296 1.704-11.764 5.172l-4.032 4.03c-9.03 9.03-24.902 9.03-33.934 0l-33.932-33.916a23.84 23.84 0 0 1-7-16.968 23.82 23.82 0 0 1 7-16.964l4.03-4.032c2.562-2.562 2.688-16.904 0.766-22.434-0.546-1.376-5.436-4.75-11.966-4.75h-5.75c-13.232 0-23.996-10.766-23.996-23.998l-0.016-47.994c0-13.23 10.764-23.996 23.998-23.996h5.764c3.562-0.032 13.904-10.24 16.358-15.374 0.546-1.368-0.578-7.202-5.172-11.794l-4.014-4.016c-9.358-9.358-9.358-24.574 0-33.932l33.932-33.948c9.032-9.032 24.904-9.032 33.934 0l4.032 4.03c0.532 0.532 3.75 2.062 11.186 2.062 5.124 0 9.732-0.764 11.232-1.288 1.376-0.554 4.75-5.436 4.75-11.976v-5.75c0-13.232 10.764-23.998 23.996-23.998h47.994c13.232 0 23.996 10.764 23.996 23.998v5.75c0.032 3.624 10.124 13.842 15.406 16.38 3.826 0.016 8.294-1.718 11.764-5.178l4.014-4.038c9.062-9.046 24.92-9.04 33.95-0.008l33.934 33.932c4.516 4.514 7 10.546 7 16.966 0 6.422-2.484 12.452-7 16.966l-4.032 4.032c-2.562 2.57-2.704 16.904-0.766 22.434 0.546 1.376 5.438 4.75 11.968 4.75h5.764c13.232 0 23.998 10.766 23.998 23.996v47.994c0 13.232-10.766 23.998-23.998 23.998h-5.764c-3.624 0.032-13.844 10.124-16.39 15.404-0.53 1.344 0.594 7.17 5.188 11.764l4.032 4.032a23.826 23.826 0 0 1 7 16.964c0 6.422-2.484 12.454-7 16.968l-33.934 33.948c-9.03 9.03-24.902 9.03-33.934 0l-4.044-4.044c-0.532-0.532-3.734-2.062-11.186-2.062-5.124 0-9.718 0.766-11.218 1.296-1.376 0.546-4.75 5.436-4.75 11.966v5.748c-0.004 13.236-10.768 23.998-24 23.998z m-88.316-62.21c2.89 0 5.532 0.546 7.842 1.656 5 2.404 24.482 16.748 24.482 30.808v5.748c0 4.406 3.594 8 7.998 8h47.994c4.406 0 8-3.594 8-8v-5.748c0-12.374 6.654-23.998 15.496-27.092 3.796-1.312 10.266-2.17 16.468-2.17 10.452 0 18.012 2.264 22.496 6.748l4.046 4.046c3 2.984 8.31 2.984 11.31 0l33.934-33.95a7.936 7.936 0 0 0 2.31-5.656 7.934 7.934 0 0 0-2.31-5.654l-4.032-4.032c-7.42-7.42-12.858-20.452-8.294-29.98 2.406-4.998 16.73-24.496 30.808-24.496h5.764a8.014 8.014 0 0 0 7.998-8v-47.994a8.014 8.014 0 0 0-7.998-7.998h-5.764c-12.36 0-24.014-6.654-27.092-15.498-1.794-5.188-5.374-29.042 4.578-38.994l4.032-4.032a7.922 7.922 0 0 0 2.31-5.656 7.918 7.918 0 0 0-2.31-5.654l-33.934-33.934c-3-2.984-8.31-2.984-11.31 0l-4.016 4.04c-8.516 8.53-21.668 12.31-30.012 8.302-5-2.406-24.48-16.74-24.48-30.808v-5.75c0-4.414-3.594-8-8-8H488a8.01 8.01 0 0 0-7.998 8v5.75c0 12.366-6.656 24.004-15.498 27.084-3.796 1.328-10.264 2.178-16.482 2.178-10.452 0-18.014-2.272-22.498-6.748l-4.03-4.032c-3-3-8.312-3-11.312 0l-33.932 33.95a7.996 7.996 0 0 0 0 11.31l4.014 4.016c8.734 8.724 12.296 21.622 8.296 29.988-2.376 4.99-16.654 24.488-30.792 24.488h-5.764c-4.406 0-8 3.594-8 7.998l0.016 47.994c0 4.406 3.594 8 7.998 8h5.75c12.358 0 24.012 6.654 27.09 15.498 1.876 5.406 5.5 28.902-4.578 38.994l-4.03 4.032a7.91 7.91 0 0 0-2.312 5.654c0 2.156 0.812 4.156 2.312 5.656l33.932 33.918c3 3 8.312 3 11.312 0l4.03-4.032c6.142-6.136 14.642-9.948 22.156-9.948z" fill="" /><path d="M400.014 591.988a7.994 7.994 0 0 1-7.998-7.998c0-66.164 53.82-119.984 119.984-119.984 4.422 0 7.998 3.578 7.998 8s-3.576 8-7.998 8c-57.336 0-103.986 46.65-103.986 103.986a7.994 7.994 0 0 1-8 7.996zM512 703.974c-4.422 0-8-3.578-8-7.998 0-4.422 3.578-8 8-8 57.336 0 103.986-46.65 103.986-103.986 0-4.422 3.576-7.998 7.998-7.998s8 3.576 8 7.998c0 66.162-53.822 119.984-119.984 119.984z" fill="" /><path d="M937.04 967.942H89.148c-39.698 0-71.992-32.292-71.992-71.992V543.996c0-4.422 3.578-8 8-8 4.422 0 8 3.578 8 8v351.954c0 30.872 25.122 55.992 55.994 55.992H937.04c30.872 0 55.992-25.122 55.992-55.992V543.996c0-4.422 3.578-8 7.998-8 4.422 0 8 3.578 8 8v351.954c0 39.698-32.294 71.992-71.99 71.992z" fill="" /><path d="M909.15 935.946h-31.994c-4.422 0-8-3.578-8-8s3.578-7.998 8-7.998h31.994c4.422 0 8 3.576 8 7.998s-3.578 8-8 8z m-63.99 0h-31.996c-4.422 0-8-3.578-8-8s3.578-7.998 8-7.998h31.996c4.42 0 7.998 3.576 7.998 7.998s-3.578 8-7.998 8z m-63.992 0h-31.996c-4.422 0-8-3.578-8-8s3.578-7.998 8-7.998h31.996c4.422 0 7.998 3.576 7.998 7.998s-3.576 8-7.998 8z m-63.992 0H685.18c-4.422 0-7.998-3.578-7.998-8s3.576-7.998 7.998-7.998h31.996c4.422 0 8 3.576 8 7.998s-3.578 8-8 8z m-63.992 0h-31.996c-4.42 0-7.998-3.578-7.998-8s3.578-7.998 7.998-7.998h31.996c4.422 0 8 3.576 8 7.998s-3.578 8-8 8z m-63.992 0h-31.994c-4.422 0-8-3.578-8-8s3.578-7.998 8-7.998h31.994c4.422 0 8 3.576 8 7.998s-3.578 8-8 8z m-63.99 0h-31.996c-4.422 0-8-3.578-8-8s3.578-7.998 8-7.998h31.996c4.42 0 7.998 3.576 7.998 7.998s-3.578 8-7.998 8z m-63.994 0h-31.996c-4.42 0-7.998-3.578-7.998-8s3.578-7.998 7.998-7.998h31.996c4.422 0 8 3.576 8 7.998s-3.578 8-8 8z m-63.992 0H365.22c-4.42 0-8-3.578-8-8s3.578-7.998 8-7.998h31.996c4.422 0 8 3.576 8 7.998s-3.578 8-8 8z m-63.99 0h-31.996c-4.422 0-8-3.578-8-8s3.578-7.998 8-7.998h31.996c4.42 0 8 3.576 8 7.998s-3.58 8-8 8z m-63.992 0h-31.996c-4.422 0-8-3.578-8-8s3.578-7.998 8-7.998h31.996c4.42 0 7.998 3.576 7.998 7.998s-3.576 8-7.998 8z m-63.992 0H173.246c-4.42 0-7.998-3.578-7.998-8s3.578-7.998 7.998-7.998h31.996c4.422 0 8 3.576 8 7.998s-3.578 8-8 8z m-63.992 0H109.254c-4.42 0-8-3.578-8-8s3.578-7.998 8-7.998h31.996c4.422 0 8 3.576 8 7.998s-3.578 8-8 8z m799.302-4.156a8.004 8.004 0 0 1-3.262-15.31 40.638 40.638 0 0 0 19.136-17.92c2.078-3.906 6.938-5.422 10.812-3.312a7.99 7.99 0 0 1 3.31 10.812 56.586 56.586 0 0 1-26.73 25.012 7.892 7.892 0 0 1-3.266 0.718zM78.822 928.04a8.034 8.034 0 0 1-4.406-1.328 56.472 56.472 0 0 1-22.358-29.012c-1.406-4.188 0.844-8.716 5.032-10.124s8.718 0.844 10.124 5.03a40.492 40.492 0 0 0 16.014 20.748 8.006 8.006 0 0 1-4.406 14.686z m890.214-48.808c-4.422 0-8-3.592-8-7.998v-31.996c0-4.438 3.578-8 8-8a7.984 7.984 0 0 1 7.998 8v31.996a8.004 8.004 0 0 1-7.998 7.998z m-911.884-7.794c-4.422 0-8-3.578-8-8v-31.996c0-4.42 3.578-7.998 8-7.998s8 3.578 8 7.998v31.996c0 4.422-3.578 8-8 8z m911.884-56.196c-4.422 0-8-3.594-8-8v-31.996a7.984 7.984 0 0 1 8-7.998c4.42 0 7.998 3.56 7.998 7.998v31.996c0 4.406-3.578 8-7.998 8z m-911.884-7.796c-4.422 0-8-3.578-8-7.998v-31.996c0-4.422 3.578-8 8-8s8 3.578 8 8v31.996a7.994 7.994 0 0 1-8 7.998z m911.884-56.196c-4.422 0-8-3.594-8-8v-31.996a7.984 7.984 0 0 1 8-7.998 7.984 7.984 0 0 1 7.998 7.998v31.996c0 4.406-3.578 8-7.998 8z m-911.884-7.796c-4.422 0-8-3.578-8-7.998V703.46c0-4.422 3.578-7.998 8-7.998s8 3.576 8 7.998v31.996a7.994 7.994 0 0 1-8 7.998z m911.884-56.196c-4.422 0-8-3.594-8-7.998v-31.996c0-4.438 3.578-8 8-8a7.984 7.984 0 0 1 7.998 8v31.996a8.004 8.004 0 0 1-7.998 7.998z m-911.884-7.796c-4.422 0-8-3.578-8-8v-31.996c0-4.42 3.578-7.998 8-7.998s8 3.578 8 7.998v31.996c0 4.422-3.578 8-8 8z m911.884-56.196c-4.422 0-8-3.594-8-7.998v-31.996a7.984 7.984 0 0 1 8-7.998c4.42 0 7.998 3.56 7.998 7.998v31.996a8.004 8.004 0 0 1-7.998 7.998z m-911.884-7.796c-4.422 0-8-3.578-8-7.998v-31.996c0-4.422 3.578-8 8-8s8 3.578 8 8v31.996a7.994 7.994 0 0 1-8 7.998zM296.012 586.318c-0.36 0-0.734-0.016-1.094-0.078C100.052 559.648 7.768 505.164 3.94 502.852a7.986 7.986 0 0 1-3.874-6.85V272.032c0-48.518 39.478-87.99 87.988-87.99h847.89c48.508 0 87.988 39.472 87.988 87.99v223.97a7.986 7.986 0 0 1-3.876 6.85c-3.828 2.312-96.144 56.796-291.01 83.388-4.342 0.578-8.404-2.468-8.998-6.844a7.982 7.982 0 0 1 6.844-8.998c169.46-23.122 261.636-68.664 281.042-79.092V272.032c0-39.7-32.292-71.992-71.99-71.992H88.054c-39.698 0-71.99 32.292-71.99 71.992v219.276c19.388 10.428 111.546 55.956 281.01 79.092a7.98 7.98 0 0 1 6.842 8.998 7.986 7.986 0 0 1-7.904 6.92z" fill="" /><path d="M40.06 472.004a7.994 7.994 0 0 1-7.998-8v-31.996c0-4.422 3.578-8 7.998-8 4.422 0 8 3.578 8 8v31.996c0 4.424-3.578 8-8 8z m0-63.99a7.994 7.994 0 0 1-7.998-8v-31.996a7.994 7.994 0 0 1 7.998-7.998c4.422 0 8 3.578 8 7.998v31.996c0 4.422-3.578 8-8 8z m0-63.992a7.994 7.994 0 0 1-7.998-8v-31.996c0-4.42 3.578-8 7.998-8 4.422 0 8 3.578 8 8v31.996c0 4.422-3.578 8-8 8z m0-63.992a7.994 7.994 0 0 1-7.998-7.998v-15.998c0-4.422 3.578-8 7.998-8 4.422 0 8 3.578 8 8v15.998a7.994 7.994 0 0 1-8 7.998zM983.938 472.004a7.994 7.994 0 0 1-7.998-8v-31.996c0-4.422 3.578-8 7.998-8 4.422 0 8 3.578 8 8v31.996c0 4.424-3.578 8-8 8z m0-63.99a7.994 7.994 0 0 1-7.998-8v-31.996a7.994 7.994 0 0 1 7.998-7.998c4.422 0 8 3.578 8 7.998v31.996c0 4.422-3.578 8-8 8z m0-63.992a7.994 7.994 0 0 1-7.998-8v-31.996c0-4.42 3.578-8 7.998-8 4.422 0 8 3.578 8 8v31.996c0 4.422-3.578 8-8 8z m0-63.992a7.994 7.994 0 0 1-7.998-7.998v-15.998c0-4.422 3.578-8 7.998-8 4.422 0 8 3.578 8 8v15.998a7.994 7.994 0 0 1-8 7.998zM775.964 248.034H248.034a7.994 7.994 0 0 1-7.998-7.998c0-4.422 3.578-8 7.998-8h527.932a7.998 7.998 0 1 1-0.002 15.998zM663.98 136.048H360.02c-4.422 0-8-3.578-8-8V96.052c0-2.084 0.812-4.084 2.266-5.576 1.36-1.406 34.872-34.418 157.714-34.418s156.354 33.012 157.712 34.418a7.986 7.986 0 0 1 2.266 5.576v31.996c0 4.422-3.578 8-7.998 8z m-295.962-15.998H655.98v-20.2c-8.936-6.39-46.212-27.792-143.98-27.792-97.582 0-134.904 21.326-143.982 27.808v20.184z" fill="" /><path d="M360.02 168.044c-4.422 0-8-3.578-8-8V128.048a7.994 7.994 0 0 1 8-7.998 7.994 7.994 0 0 1 7.998 7.998v31.996c0 4.422-3.578 8-7.998 8z" fill="" /><path d="M392.016 168.044c-4.422 0-8-3.578-8-8V128.048a7.994 7.994 0 0 1 8-7.998 7.994 7.994 0 0 1 7.998 7.998v31.996c0 4.422-3.578 8-7.998 8z" fill="" /><path d="M631.984 168.044c-4.422 0-8-3.578-8-8V128.048c0-4.42 3.578-7.998 8-7.998s7.998 3.578 7.998 7.998v31.996c0 4.422-3.576 8-7.998 8z" fill="" /><path d="M663.98 168.044c-4.422 0-8-3.578-8-8V128.048a7.994 7.994 0 0 1 8-7.998 7.994 7.994 0 0 1 7.998 7.998v31.996c0 4.422-3.578 8-7.998 8z" fill="" /></svg>