<?xml version="1.0" ?>
<!-- Uploaded to: SVG Repo, www.svgrepo.com, Generator: SVG Repo Mixer Tools -->
<svg width="800px" height="800px" viewBox="0 0 50 50" id="Message_And_Communication_Icons" version="1.1" xml:space="preserve" xmlns="http://www.w3.org/2000/svg" xmlns:xlink="http://www.w3.org/1999/xlink">
<g>
<g>
<g>
<g>
<g>
<path d="M35.1,20.6l-0.8-0.9c1.4-1.2,3.2-1.8,5-1.8v1.2C37.8,19.1,36.3,19.6,35.1,20.6z" style="fill:#0D5FC3;"/>
</g>
</g>
<g>
<g>
<path d="M33.8,23.6l-1.1-0.5c0.3-0.6,0.6-1.2,1.1-1.8l0.9,0.8C34.3,22.6,34,23.1,33.8,23.6z" style="fill:#4DE0F9;"/>
</g>
</g>
<g>
<g>
<path d="M33.2,23.1l-1.1-0.5c0.3-0.6,0.6-1.2,1.1-1.8l0.9,0.8C33.7,22.1,33.4,22.6,33.2,23.1z" style="fill:#0D5FC3;"/>
</g>
</g>
<g>
<g>
<g>
<path d="M36.6,17.7c0.3,0,0.6-0.1,1-0.1c0.2,0,0.5,0,0.7,0c-1.1-1.6-2.5-2.8-4.2-3.6        C35.1,15.1,36,16.3,36.6,17.7z" style="fill:#4DE0F9;"/>
</g>
</g>
<g>
<g>
<path d="M42.9,19.9c1.3,1.3,2,3.1,2,5.1c0,1-0.2,1.9-0.5,2.8h-5.1c0,0.1,0,0.2,0,0.4        c0,0.5,0.1,1,0.2,1.4H47c0.3-0.9,0.5-1.8,0.5-2.8C47.6,23.6,45.6,20.9,42.9,19.9z" style="fill:#4DE0F9;"/>
</g>
</g>
</g>
<g>
<g>
<path d="M46.5,29.2h-5.3V28h4.5c0.2-0.7,0.4-1.4,0.4-2.2c0-3.7-3-6.7-6.7-6.7c-0.3,0-0.6,0-0.9,0.1       L38,19.2l-0.2-0.4c-1.6-3.7-5.1-6-9.1-6c-4.9,0-9.1,3.7-9.8,8.5l-0.1,0.5l-0.5,0c-2.8,0.2-5,2.6-5,5.4c0,0.3,0,0.5,0.1,0.8h5       v1.2h-6l-0.1-0.5c-0.1-0.5-0.2-1-0.2-1.6c0-3.3,2.4-6,5.6-6.5c1-5.2,5.6-9.1,10.9-9.1c4.3,0,8.2,2.5,10,6.3c0.2,0,0.4,0,0.6,0       c4.4,0,7.9,3.6,7.9,7.9c0,1-0.2,2-0.6,3L46.5,29.2z" style="fill:#0D5FC3;"/>
</g>
</g>
</g>
<g>
<g>
<rect height="1.2" style="fill:#0D5FC3;" width="11.3" x="4.4" y="28"/>
</g>
</g>
<g>
<g>
<rect height="1.2" style="fill:#0D5FC3;" width="4.8" x="8.3" y="24.7"/>
</g>
</g>
<g>
<g>
<rect height="1.2" style="fill:#0D5FC3;" width="3.6" x="12.1" y="21.4"/>
</g>
</g>
<g>
<g>
<rect height="1.2" style="fill:#0D5FC3;" width="2.7" x="8.7" y="17.9"/>
</g>
</g>
</g>
<g>
<g>
<g>
<g>
<rect height="2.3" style="fill:#4DE0F9;" width="9.5" x="30.7" y="35.5"/>
</g>
</g>
<g>
<g>
<polygon points="37.7,28.5 40.2,26.9 40.2,37.8 37.7,37.8      " style="fill:#4DE0F9;"/>
</g>
</g>
<g>
<g>
<path d="M39.9,37.4H21.5V25.3h18.4V37.4z M22.7,36.2h16v-9.7h-16V36.2z" style="fill:#0D5FC3;"/>
</g>
</g>
<g>
<g>
<polygon points="30.7,32.1 21.8,26.4 22.4,25.4 30.7,30.7 39,25.4 39.6,26.4      " style="fill:#0D5FC3;"/>
</g>
</g>
</g>
<g>
<g>
<rect height="1.2" style="fill:#0D5FC3;" width="2.2" x="19.9" y="30.6"/>
</g>
</g>
<g>
<g>
<rect height="1.2" style="fill:#0D5FC3;" width="5.6" x="16.5" y="33.4"/>
</g>
</g>
<g>
<g>
<rect height="1.2" style="fill:#0D5FC3;" width="9" x="13.1" y="36.2"/>
</g>
</g>
<g>
<g>
<rect height="1.2" style="fill:#0D5FC3;" width="1.6" x="15.8" y="14.5"/>
</g>
</g>
</g>
</g>
</svg>